<svg width="16" height="15" xmlns="http://www.w3.org/2000/svg"><path d="M12 10.05c-.507 0-.96.188-1.307.481L5.94 7.937C5.973 7.795 6 7.65 6 7.5c0-.15-.027-.294-.06-.438l4.7-2.568C11 4.806 11.473 5 12 5c1.107 0 2-.838 2-1.875 0-1.038-.893-1.875-2-1.875s-2 .837-2 1.875c0 .15.027.294.06.438L5.36 6.13A2.065 2.065 0 004 5.625c-1.107 0-2 .838-2 1.875s.893 1.875 2 1.875c.527 0 1-.194 1.36-.506l4.747 2.6a1.659 1.659 0 00-.054.406c0 1.006.874 1.825 1.947 1.825s1.947-.819 1.947-1.825S13.073 10.05 12 10.05zm0-7.55c.367 0 .667.281.667.625s-.3.625-.667.625c-.367 0-.667-.281-.667-.625s.3-.625.667-.625zM4 8.125c-.367 0-.667-.281-.667-.625s.3-.625.667-.625c.367 0 .667.281.667.625s-.3.625-.667.625zm8 4.387c-.367 0-.667-.28-.667-.625 0-.343.3-.625.667-.625.367 0 .667.282.667.625 0 .344-.3.625-.667.625z" fill-rule="evenodd"/></svg>